<svg xmlns="http://www.w3.org/2000/svg" shape-rendering="geometricPrecision" text-rendering="geometricPrecision" image-rendering="optimizeQuality" fill-rule="evenodd" clip-rule="evenodd" viewBox="0 0 512 420.16"><path fill-rule="nonzero" d="M74.32 0h363.36C478.55 0 512 33.46 512 74.32v271.53c0 40.81-33.5 74.31-74.32 74.31H74.32C33.44 420.16 0 386.69 0 345.85V74.32C0 33.41 33.41 0 74.32 0zm60.16 278.35V141.81h61.17c24.61 0 41.51 5.25 50.68 15.73 9.18 10.49 13.77 28 13.77 52.55 0 24.54-4.59 42.05-13.77 52.53-9.17 10.49-26.07 15.73-50.68 15.73h-61.17zm61.83-101.58h-18.13v66.63h18.13c5.97 0 10.3-.69 13-2.08 2.69-1.38 4.03-4.55 4.03-9.5v-43.48c0-4.94-1.34-8.11-4.03-9.5-2.7-1.38-7.03-2.07-13-2.07zm171.37 50.02H324v16.61h53.52v34.95H280.3V141.81h96.12l-5.46 34.96H324v18.35h43.68v31.67zm70-190.86H74.32c-21.08 0-38.39 17.31-38.39 38.39v271.53c0 21.1 17.25 38.39 38.39 38.39h363.36c21.16 0 38.39-17.24 38.39-38.39V74.32c0-21.09-17.29-38.39-38.39-38.39z"/></svg>