<svg xmlns="http://www.w3.org/2000/svg" shape-rendering="geometricPrecision" text-rendering="geometricPrecision" image-rendering="optimizeQuality" fill-rule="evenodd" clip-rule="evenodd" viewBox="0 0 512 420.165"><path fill-rule="nonzero" d="M74.316 0h363.368C478.548 0 512 33.458 512 74.316v271.533c0 40.815-33.502 74.316-74.316 74.316H74.316C33.439 420.165 0 386.689 0 345.849V74.316C0 33.408 33.408 0 74.316 0zm144.167 278.351c-3.994-5.79-36.189-58.983-36.48-58.983v58.983h-43.694V141.814h41.068c3.995 5.802 36.195 58.983 36.486 58.983v-58.983h43.688v136.537h-41.068zm155.214 0h-87.382V141.814h43.694v101.587h43.688v34.95zm63.987-242.422H74.316c-21.079 0-38.387 17.307-38.387 38.387v271.533c0 21.104 17.252 38.387 38.387 38.387h363.368c21.153 0 38.387-17.233 38.387-38.387V74.316c0-21.092-17.289-38.387-38.387-38.387z"/></svg>