<svg xmlns="http://www.w3.org/2000/svg" shape-rendering="geometricPrecision" text-rendering="geometricPrecision" image-rendering="optimizeQuality" fill-rule="evenodd" clip-rule="evenodd" viewBox="0 0 512 420.165"><path fill-rule="nonzero" d="M74.316 0h363.368C478.548 0 512 33.458 512 74.316v271.533c0 40.815-33.502 74.316-74.316 74.316H74.316C33.439 420.165 0 386.689 0 345.849V74.316C0 33.408 33.408 0 74.316 0zm167.215 176.77h-31.68v101.581h-43.688V176.77h-31.681v-34.956h107.049v34.956zm135.987 101.581h-48.06l-17.915-40.634h-9.387v40.634h-43.694V141.814h68.81c31.316 0 46.97 15.951 46.97 47.843 0 21.847-6.768 36.263-20.318 43.254l23.594 45.44zM302.156 176.77v27.303H312.2c5.245 0 9.066-.545 11.468-1.635 2.403-1.09 3.604-3.604 3.604-7.536v-8.961c0-3.932-1.201-6.44-3.604-7.536-2.402-1.09-6.223-1.635-11.468-1.635h-10.044zM437.684 35.929H74.316c-21.079 0-38.387 17.307-38.387 38.387v271.533c0 21.104 17.252 38.387 38.387 38.387h363.368c21.153 0 38.387-17.233 38.387-38.387V74.316c0-21.092-17.289-38.387-38.387-38.387z"/></svg>